<?xml version="1.0" encoding="UTF-8"?>
<svg version="1.1" xmlns="http://www.w3.org/2000/svg" width="58" height="84">
<path d="M0 0 C0.66 0.33 1.32 0.66 2 1 C2.99 1 3.98 1 5 1 C5.66 1.66 6.32 2.32 7 3 C7.33 2.34 7.66 1.68 8 1 C8.66 1 9.32 1 10 1 C10 1.99 10 2.98 10 4 C11.65 3.67 13.3 3.34 15 3 C15.495 5.97 15.495 5.97 16 9 C19 10.33333333 19 10.33333333 22 9 C22.28571429 17.57142857 22.28571429 17.57142857 20 21 C20.66 21 21.32 21 22 21 C22.25 27.625 22.25 27.625 20 31 C20.66 31 21.32 31 22 31 C21.02907499 33.09122309 20.0857467 34.89476541 18.625 36.6875 C16.12869037 40.23994062 13.85044827 43.68960833 13 48 C13.91568018 50.26099229 15.02634345 51.69896092 16.66796875 53.4921875 C19.8229042 57.06346341 19.38734 61.82221711 19.3515625 66.32421875 C19 69 19 69 16.75 72.1875 C14 74 14 74 10 74 C9.814375 75.918125 9.814375 75.918125 9.625 77.875 C9.25 81.75 9.25 81.75 7 84 C4.65234375 84.23046875 4.65234375 84.23046875 1.9375 84.1875 C0.58978516 84.17783203 0.58978516 84.17783203 -0.78515625 84.16796875 C-3 84 -3 84 -4 83 C-4.14115161 80.32941149 -4.04247107 77.67567762 -4 75 C-4.66 75 -5.32 75 -6 75 C-5.979375 76.299375 -5.95875 77.59875 -5.9375 78.9375 C-5.91600546 80.29165633 -5.92851801 81.64756083 -6 83 C-7.66561399 84.66561399 -9.65962705 84.17115945 -11.9375 84.1875 C-12.83339844 84.20167969 -13.72929687 84.21585937 -14.65234375 84.23046875 C-17 84 -17 84 -19 82 C-19.1953125 79.6171875 -19.1953125 79.6171875 -19.125 76.875 C-19.10695313 75.96492188 -19.08890625 75.05484375 -19.0703125 74.1171875 C-19.04710938 73.41851562 -19.02390625 72.71984375 -19 72 C-19.66 72.99 -20.32 73.98 -21 75 C-26.50309598 74.51083591 -26.50309598 74.51083591 -28.671875 72.28125 C-31.09843564 68.11327525 -30.59964047 63.66816883 -30 59 C-28.57914072 54.91753107 -26.38662972 51.57994457 -24 48 C-24.5775 47.195625 -25.155 46.39125 -25.75 45.5625 C-27.5045915 42.9553253 -28.78034534 40.33175987 -30 37.4375 C-31.54726576 33.80265346 -33.33041391 30.95561317 -36 28 C-35.67 27.34 -35.34 26.68 -35 26 C-33.68 26.66 -32.36 27.32 -31 28 C-31.515625 26.906875 -32.03125 25.81375 -32.5625 24.6875 C-34 21 -34 21 -33 18 C-32.01 18.33 -31.02 18.66 -30 19 C-30.515625 18.401875 -31.03125 17.80375 -31.5625 17.1875 C-32.2740625 16.1046875 -32.2740625 16.1046875 -33 15 C-32.67 14.01 -32.34 13.02 -32 12 C-33.37168238 9.80961577 -33.37168238 9.80961577 -35 8 C-33.35 8.33 -31.7 8.66 -30 9 C-29.67 7.35 -29.34 5.7 -29 4 C-26.03 4.33 -23.06 4.66 -20 5 C-20 4.01 -20 3.02 -20 2 C-18.68 2.33 -17.36 2.66 -16 3 C-16 2.34 -16 1.68 -16 1 C-15.39671875 1.08378906 -14.7934375 1.16757812 -14.171875 1.25390625 C-12.97304688 1.40666016 -12.97304688 1.40666016 -11.75 1.5625 C-10.96109375 1.66691406 -10.1721875 1.77132812 -9.359375 1.87890625 C-6.99467126 2.00027349 -5.2488963 1.69633257 -3 1 C-2.505 1.99 -2.505 1.99 -2 3 C-1.34 2.01 -0.68 1.02 0 0 Z M-28 7 C-27.67 7.99 -27.34 8.98 -27 10 C-26.67 9.01 -26.34 8.02 -26 7 C-26.66 7 -27.32 7 -28 7 Z M13 7 C14 9 14 9 14 9 Z M-26 8 C-25.67 8.66 -25.34 9.32 -25 10 C-24.34 9.67 -23.68 9.34 -23 9 C-23.99 8.67 -24.98 8.34 -26 8 Z M19 21 C20 23 20 23 20 23 Z M8 71 C9 73 9 73 9 73 Z " fill="#F58800" transform="translate(36,0)"/>
<path d="M0 0 C1.32 0.33 2.64 0.66 4 1 C4.625 4.375 4.625 4.375 5 8 C4.34 8.66 3.68 9.32 3 10 C3.32326553 13.59679066 3.32326553 13.59679066 4 17 C3.34 17 2.68 17 2 17 C3.35625096 19.76072417 4.73348686 22.50711352 6.125 25.25 C6.50398437 26.02730469 6.88296875 26.80460937 7.2734375 27.60546875 C9.81985517 32.5709832 11.90925658 35.54430263 17 38 C18.485 37.505 18.485 37.505 20 37 C22.39490986 36.93029948 24.79167691 36.91551997 27.1875 36.9375 C28.45980469 36.94652344 29.73210938 36.95554688 31.04296875 36.96484375 C32.50669922 36.98224609 32.50669922 36.98224609 34 37 C33.67 37.99 33.34 38.98 33 40 C41.01900786 35.82215812 45.09204679 32.72385964 48 24 C48.66 24 49.32 24 50 24 C48.95902388 27.86648272 47.96301592 31.49461443 46 35 C46.34933594 35.47050781 46.69867188 35.94101562 47.05859375 36.42578125 C47.51363281 37.04839844 47.96867187 37.67101563 48.4375 38.3125 C48.88996094 38.92738281 49.34242187 39.54226562 49.80859375 40.17578125 C52.88974172 44.89347339 52.71196263 50.58117331 52 56 C49.75 59.1875 49.75 59.1875 47 61 C45.68 61 44.36 61 43 61 C42.814375 62.918125 42.814375 62.918125 42.625 64.875 C42.25 68.75 42.25 68.75 40 71 C37.65234375 71.23046875 37.65234375 71.23046875 34.9375 71.1875 C33.58978516 71.17783203 33.58978516 71.17783203 32.21484375 71.16796875 C30 71 30 71 29 70 C28.85884839 67.32941149 28.95752893 64.67567762 29 62 C28.34 62 27.68 62 27 62 C27.020625 63.299375 27.04125 64.59875 27.0625 65.9375 C27.08399454 67.29165633 27.07148199 68.64756083 27 70 C25.33438601 71.66561399 23.34037295 71.17115945 21.0625 71.1875 C20.16660156 71.20167969 19.27070313 71.21585937 18.34765625 71.23046875 C16 71 16 71 14 69 C13.8046875 66.6171875 13.8046875 66.6171875 13.875 63.875 C13.89304687 62.96492188 13.91109375 62.05484375 13.9296875 61.1171875 C13.95289062 60.41851562 13.97609375 59.71984375 14 59 C13.34 59.99 12.68 60.98 12 62 C6.49690402 61.51083591 6.49690402 61.51083591 4.328125 59.28125 C1.90156436 55.11327525 2.40035953 50.66816883 3 46 C4.42085928 41.91753107 6.61337028 38.57994457 9 35 C8.4225 34.195625 7.845 33.39125 7.25 32.5625 C5.4954085 29.9553253 4.21965466 27.33175987 3 24.4375 C1.45273424 20.80265346 -0.33041391 17.95561317 -3 15 C-2.67 14.34 -2.34 13.68 -2 13 C-0.68 13.66 0.64 14.32 2 15 C1.484375 13.906875 0.96875 12.81375 0.4375 11.6875 C-1 8 -1 8 0 5 C0.99 5.33 1.98 5.66 3 6 C2.2575 5.071875 2.2575 5.071875 1.5 4.125 C0 2 0 2 0 0 Z M41 58 C42 60 42 60 42 60 Z " fill="#FE1E00" transform="translate(3,13)"/>
<path d="M0 0 C0.34514786 6.3532772 0.3228125 11.35121875 -3 17 C-7.10161921 21.21099572 -10.3907184 23.16041482 -16.25 23.3125 C-21.33951562 23.25262335 -24.16116753 22.55794229 -28 19 C-31.46052174 14.41714689 -33.14554495 11.04260123 -33.0625 5.3125 C-33.05347656 4.50425781 -33.04445313 3.69601563 -33.03515625 2.86328125 C-33.02355469 2.24839844 -33.01195312 1.63351563 -33 1 C-30.15266466 -0.42366767 -28.07246902 0.47702655 -25 1 C-24.67 0.67 -24.34 0.34 -24 0 C-21.64686445 -0.07271741 -19.29166332 -0.08370868 -16.9375 -0.0625 C-15.64714844 -0.05347656 -14.35679688 -0.04445312 -13.02734375 -0.03515625 C-12.02832031 -0.02355469 -11.02929688 -0.01195312 -10 0 C-10.33 0.99 -10.66 1.98 -11 3 C-9.9275 2.319375 -8.855 1.63875 -7.75 0.9375 C-4.76488695 -0.95689867 -3.35526723 -1.18028205 0 0 Z " fill="#FE8900" transform="translate(47,50)"/>
<path d="M0 0 C1.32 0.33 2.64 0.66 4 1 C4.625 4.375 4.625 4.375 5 8 C4.34 8.66 3.68 9.32 3 10 C3.32326553 13.59679066 3.32326553 13.59679066 4 17 C3.34 17 2.68 17 2 17 C3.40431142 19.75647811 4.82558217 22.50386531 6.25 25.25 C6.64574219 26.02730469 7.04148437 26.80460937 7.44921875 27.60546875 C9.55881791 31.65174911 11.47191679 34.98980056 15 38 C14.01 38 13.02 38 12 38 C11.31102844 46.26765866 13.47993621 51.21990432 18 58 C17.34 58 16.68 58 16 58 C16.33 61.63 16.66 65.26 17 69 C19.64 69 22.28 69 25 69 C25.33 66.36 25.66 63.72 26 61 C27.32 61 28.64 61 30 61 C30.495 64.96 30.495 64.96 31 69 C35.00254456 69.09181134 35.00254456 69.09181134 39 69 C40.49743119 67.50256881 40.33202693 66.01175761 40.5625 63.9375 C40.706875 62.638125 40.85125 61.33875 41 60 C41.33 60 41.66 60 42 60 C42.05399736 61.45792884 42.09279177 62.91642712 42.125 64.375 C42.14820313 65.18710938 42.17140625 65.99921875 42.1953125 66.8359375 C42 69 42 69 40 71 C37.65234375 71.23046875 37.65234375 71.23046875 34.9375 71.1875 C33.58978516 71.17783203 33.58978516 71.17783203 32.21484375 71.16796875 C30 71 30 71 29 70 C28.85884839 67.32941149 28.95752893 64.67567762 29 62 C28.34 62 27.68 62 27 62 C27.020625 63.299375 27.04125 64.59875 27.0625 65.9375 C27.08399454 67.29165633 27.07148199 68.64756083 27 70 C25.33438601 71.66561399 23.34037295 71.17115945 21.0625 71.1875 C20.16660156 71.20167969 19.27070313 71.21585937 18.34765625 71.23046875 C16 71 16 71 14 69 C13.8046875 66.6171875 13.8046875 66.6171875 13.875 63.875 C13.89304687 62.96492188 13.91109375 62.05484375 13.9296875 61.1171875 C13.95289062 60.41851562 13.97609375 59.71984375 14 59 C13.34 59.99 12.68 60.98 12 62 C6.49690402 61.51083591 6.49690402 61.51083591 4.328125 59.28125 C1.90156436 55.11327525 2.40035953 50.66816883 3 46 C4.42085928 41.91753107 6.61337028 38.57994457 9 35 C8.4225 34.195625 7.845 33.39125 7.25 32.5625 C5.4954085 29.9553253 4.21965466 27.33175987 3 24.4375 C1.45273424 20.80265346 -0.33041391 17.95561317 -3 15 C-2.67 14.34 -2.34 13.68 -2 13 C-0.68 13.66 0.64 14.32 2 15 C1.484375 13.906875 0.96875 12.81375 0.4375 11.6875 C-1 8 -1 8 0 5 C0.99 5.33 1.98 5.66 3 6 C2.2575 5.071875 2.2575 5.071875 1.5 4.125 C0 2 0 2 0 0 Z " fill="#FD1200" transform="translate(3,13)"/>
<path d="M0 0 C2.29540072 0.91816029 3.71213262 1.57375426 5.11328125 3.6484375 C6.30044342 6.79677066 6.301663 9.51553092 6.3125 12.875 C6.32925781 14.06867187 6.34601562 15.26234375 6.36328125 16.4921875 C5.97040185 20.28579715 4.89932304 22.7225402 3 26 C1.68 26 0.36 26 -1 26 C-4.39443994 19.77686012 -4.74860349 14.01937296 -4 7 C-2.08333333 2.08333333 -2.08333333 2.08333333 0 0 Z " fill="#0D0700" transform="translate(21,18)"/>
<path d="M0 0 C0.99 0 1.98 0 3 0 C6.55388045 4.20459095 6.45628757 8.27049967 6.375 13.5 C6.38660156 14.24636719 6.39820313 14.99273437 6.41015625 15.76171875 C6.38580845 20.34722098 5.84249022 23.21001304 3 27 C1.125 26.75 1.125 26.75 -1 26 C-3.72053843 22.28670369 -3.33130627 17.96692876 -3.3125 13.5625 C-3.32861328 12.81162109 -3.34472656 12.06074219 -3.36132812 11.28710938 C-3.36530717 6.76293097 -3.05562428 3.59948246 0 0 Z " fill="#0A0600" transform="translate(36,18)"/>
<path d="M0 0 C0.66 0 1.32 0 2 0 C2 0.99 2 1.98 2 3 C3.65 2.67 5.3 2.34 7 2 C7.33 3.98 7.66 5.96 8 8 C11 9.33333333 11 9.33333333 14 8 C14.28571429 16.57142857 14.28571429 16.57142857 12 20 C12.66 20 13.32 20 14 20 C14.25 26.625 14.25 26.625 12 30 C12.66 30 13.32 30 14 30 C12.25 33.875 12.25 33.875 10 35 C8.96884721 31.73086376 9.0361016 29.13958652 9.4375 25.75 C9.53933594 24.85796875 9.64117187 23.9659375 9.74609375 23.046875 C9.82988281 22.37140625 9.91367187 21.6959375 10 21 C9.34 21 8.68 21 8 21 C8 19.68 8 18.36 8 17 C7.34 17 6.68 17 6 17 C6.33 16.01 6.66 15.02 7 14 C7.99 13.67 8.98 13.34 10 13 C9.01 12.67 8.02 12.34 7 12 C7 11.34 7 10.68 7 10 C5.68 10 4.36 10 3 10 C3 9.34 3 8.68 3 8 C2.34 7.67 1.68 7.34 1 7 C0.59270772 4.67843403 0.25561323 2.3431213 0 0 Z M5 6 C6 8 6 8 6 8 Z M11 20 C12 22 12 22 12 22 Z " fill="#FD1000" transform="translate(44,1)"/>
<path d="M0 0 C0.33 0 0.66 0 1 0 C1.07347656 1.12148438 1.07347656 1.12148438 1.1484375 2.265625 C1.22320313 3.25046875 1.29796875 4.2353125 1.375 5.25 C1.44460937 6.22453125 1.51421875 7.1990625 1.5859375 8.203125 C1.8472504 10.97022338 1.8472504 10.97022338 3.0625 13.125 C4.56631575 16.1326315 3.61495179 18.80225069 3 22 C0.6875 22.25 0.6875 22.25 -2 22 C-4.68045544 19.18520192 -5.45088969 17.10515936 -5.5 13.25 C-5.36392914 7.85519057 -3.47452052 4.07828967 0 0 Z " fill="#FE8400" transform="translate(12,51)"/>
<path d="M0 0 C0.60328125 0.08378906 1.2065625 0.16757812 1.828125 0.25390625 C3.02695312 0.40666016 3.02695312 0.40666016 4.25 0.5625 C5.03890625 0.66691406 5.8278125 0.77132813 6.640625 0.87890625 C9.00532874 1.00027349 10.7511037 0.69633257 13 0 C12.67 1.65 12.34 3.3 12 5 C5.25 5.125 5.25 5.125 3 4 C3 4.66 3 5.32 3 6 C1.68 5.67 0.36 5.34 -1 5 C-1.33 5.99 -1.66 6.98 -2 8 C-3.98 7.34 -5.96 6.68 -8 6 C-8.33 6.66 -8.66 7.32 -9 8 C-8.01 8 -7.02 8 -6 8 C-7.2 11.6 -7.2 11.6 -10 13 C-10.66 12.67 -11.32 12.34 -12 12 C-12 11.34 -12 10.68 -12 10 C-13.175625 10.0928125 -13.175625 10.0928125 -14.375 10.1875 C-15.674375 10.0946875 -15.674375 10.0946875 -17 10 C-17.66 9.01 -18.32 8.02 -19 7 C-16.525 7.495 -16.525 7.495 -14 8 C-13.67 6.35 -13.34 4.7 -13 3 C-10.03 3.33 -7.06 3.66 -4 4 C-4 3.01 -4 2.02 -4 1 C-2.68 1.33 -1.36 1.66 0 2 C0 1.34 0 0.68 0 0 Z M-12 6 C-11.67 6.99 -11.34 7.98 -11 9 C-10.67 8.01 -10.34 7.02 -10 6 C-10.66 6 -11.32 6 -12 6 Z " fill="#FD2400" transform="translate(20,1)"/>
<path d="M0 0 C4.89517876 4.73726977 4.89517876 4.73726977 5.16796875 8.0234375 C5.17441406 8.79945312 5.18085937 9.57546875 5.1875 10.375 C5.20167969 11.14585938 5.21585938 11.91671875 5.23046875 12.7109375 C4.97132939 15.28476236 4.44397692 16.85547982 3 19 C-0.125 19.75 -0.125 19.75 -3 20 C-4.3727542 15.88173741 -3.62045479 13.75113686 -1.76953125 9.9140625 C-0.47073474 6.68355342 -0.30286947 3.4527119 0 0 Z " fill="#FE8700" transform="translate(49,52)"/>
<path d="M0 0 C0.02687279 1.81242052 0.04633715 3.62495233 0.0625 5.4375 C0.07410156 6.44683594 0.08570313 7.45617187 0.09765625 8.49609375 C0 11 0 11 -1 12 C-2.8125 12.1328125 -2.8125 12.1328125 -5 12.125 C-5.721875 12.12757812 -6.44375 12.13015625 -7.1875 12.1328125 C-9 12 -9 12 -10 11 C-10.04092937 8.66702567 -10.04241723 6.33294775 -10 4 C-8.71086513 3.32845067 -7.41859796 2.66291141 -6.125 2 C-5.40570313 1.62875 -4.68640625 1.2575 -3.9453125 0.875 C-2 0 -2 0 0 0 Z " fill="#FF8D00" transform="translate(43,71)"/>
<path d="M0 0 C1.48034764 0.47550561 2.95925021 0.95551216 4.4375 1.4375 C5.26121094 1.70433594 6.08492187 1.97117187 6.93359375 2.24609375 C9 3 9 3 10 4 C10.125 7.5 10.125 7.5 10 11 C9 12 9 12 7.1875 12.1328125 C6.465625 12.13023438 5.74375 12.12765625 5 12.125 C4.278125 12.12757812 3.55625 12.13015625 2.8125 12.1328125 C1 12 1 12 0 11 C-0.07226502 9.14712498 -0.0838122 7.29166122 -0.0625 5.4375 C-0.05347656 4.42558594 -0.04445313 3.41367188 -0.03515625 2.37109375 C-0.02355469 1.58863281 -0.01195313 0.80617188 0 0 Z " fill="#FF8D00" transform="translate(19,71)"/>
<path d="M0 0 C1.65 0 3.3 0 5 0 C4.01 0.495 4.01 0.495 3 1 C3 1.66 3 2.32 3 3 C2.67 3.33 2.34 3.66 2 4 C3.65 4.33 5.3 4.66 7 5 C5.8 8.6 5.8 8.6 3 10 C2.34 9.67 1.68 9.34 1 9 C1 8.34 1 7.68 1 7 C-0.175625 7.0928125 -0.175625 7.0928125 -1.375 7.1875 C-2.24125 7.125625 -3.1075 7.06375 -4 7 C-4.66 6.01 -5.32 5.02 -6 4 C-3.525 4.495 -3.525 4.495 -1 5 C-0.67 3.35 -0.34 1.7 0 0 Z " fill="#FD0700" transform="translate(7,4)"/>
<path d="M0 0 C0.66 0 1.32 0 2 0 C0.95902388 3.86648272 -0.03698408 7.49461443 -2 11 C-1.62746094 11.47050781 -1.25492188 11.94101562 -0.87109375 12.42578125 C-0.39800781 13.04839844 0.07507812 13.67101563 0.5625 14.3125 C1.03816406 14.92738281 1.51382813 15.54226562 2.00390625 16.17578125 C2.33261719 16.77777344 2.66132812 17.37976563 3 18 C2.67 18.99 2.34 19.98 2 21 C0.68 18.69 -0.64 16.38 -2 14 C-2.99 15.485 -2.99 15.485 -4 17 C-5.25 14.3125 -5.25 14.3125 -6 11 C-4.25 8.5 -4.25 8.5 -2 6 C-0.74443113 2.82078213 -0.74443113 2.82078213 0 0 Z " fill="#FD0D00" transform="translate(51,37)"/>
<path d="M0 0 C0.66 0.33 1.32 0.66 2 1 C2.99 1 3.98 1 5 1 C7.1385485 3.1385485 7.42655063 4.13275314 8 7 C6.35 7.33 4.7 7.66 3 8 C3 7.34 3 6.68 3 6 C0.03 5.505 0.03 5.505 -3 5 C-2.01 3.35 -1.02 1.7 0 0 Z " fill="#FD1400" transform="translate(36,0)"/>
<path d="M0 0 C0.60328125 0.08378906 1.2065625 0.16757812 1.828125 0.25390625 C3.02695312 0.40666016 3.02695312 0.40666016 4.25 0.5625 C5.03890625 0.66691406 5.8278125 0.77132813 6.640625 0.87890625 C9.00532874 1.00027349 10.7511037 0.69633257 13 0 C12.67 1.32 12.34 2.64 12 4 C8.37 3.67 4.74 3.34 1 3 C0.67 2.01 0.34 1.02 0 0 Z " fill="#FD0C00" transform="translate(20,1)"/>
<path d="M0 0 C0.33 0.66 0.66 1.32 1 2 C0.06553465 4.03144641 -0.93224776 6.03533587 -2 8 C-2.99 7.67 -3.98 7.34 -5 7 C-5 5.68 -5 4.36 -5 3 C-5.66 2.67 -6.32 2.34 -7 2 C-6.21625 2.04125 -5.4325 2.0825 -4.625 2.125 C-1.83883881 2.28728734 -1.83883881 2.28728734 0 0 Z " fill="#FE2600" transform="translate(57,15)"/>
<path d="M0 0 C4.75 0.75 4.75 0.75 7 3 C6.01 3 5.02 3 4 3 C4 4.32 4 5.64 4 7 C3.34 6.67 2.68 6.34 2 6 C2.33 5.01 2.66 4.02 3 3 C2.34 3 1.68 3 1 3 C0.67 2.01 0.34 1.02 0 0 Z " fill="#FE7800" transform="translate(11,6)"/>
<path d="" fill="#FF0000" transform="translate(0,0)"/>
</svg>
